<?xml version="1.0" encoding="UTF-8" standalone="no"?>
<!-- Created with Inkscape (http://www.inkscape.org/) -->

<svg
   xmlns:dc="http://purl.org/dc/elements/1.1/"
   xmlns:cc="http://creativecommons.org/ns#"
   xmlns:rdf="http://www.w3.org/1999/02/22-rdf-syntax-ns#"
   xmlns:svg="http://www.w3.org/2000/svg"
   xmlns="http://www.w3.org/2000/svg"
   xmlns:inkscape="http://www.inkscape.org/namespaces/inkscape"
   version="1.0"
   width="500pt"
   height="500pt"
   viewBox="0 0 500 500"
   id="svg2">
  <defs
     id="defs16">
    <inkscape:path-effect
       effect="skeletal"
       id="path-effect5347" />
    <inkscape:path-effect
       effect="skeletal"
       id="path-effect3003" />
    <mask
       id="mask3169">
      <g
         transform="translate(-3.7288135e-6,2.1186407)"
         id="g3171">
        <rect
           width="502.11865"
           height="502.11865"
           x="1.6860382e-07"
           y="-2.7332607e-07"
           id="rect3173"
           style="fill:#ffffff;fill-opacity:1" />
        <g
           transform="matrix(0.69831127,0,0,0.69831127,80.162666,30.046401)"
           id="g3175"
           style="fill:#000000;fill-opacity:1">
          <path
             d="m 167.32244,55.251918 c -0.0169,-0.470816 2.08112,-1.040701 6.20833,-1.54243 4.1272,-0.501729 10.29284,-0.93782 18.36215,-0.801233 8.0693,0.136588 18.05679,0.840179 29.59656,3.02163 11.53978,2.181452 24.64798,5.834318 38.49458,12.366212 5.28136,2.492207 10.6671,5.441729 15.98246,8.98814 5.31536,3.54641 10.56082,7.6896 15.49875,12.594642 3.71176,3.670654 7.22882,7.831763 10.30028,12.506451 3.07146,4.67468 5.69755,9.86303 7.57093,15.57799 1.58925,4.95157 2.48826,10.21897 2.59094,15.61503 0.10268,5.39606 -0.59098,10.92091 -2.19135,16.34447 -1.80099,5.88293 -4.49784,11.46689 -7.89581,16.65373 -3.39796,5.18684 -7.49719,9.97656 -12.04533,14.26288 -5.7996,5.50791 -12.24355,10.41525 -19.14527,14.78323 -6.90171,4.36799 -14.26131,8.1965 -21.83799,11.58367 -9.82768,4.42376 -20.13118,8.23446 -30.7991,11.51528 -10.66792,3.28081 -21.70026,6.03167 -32.95426,8.38415 -6.07274,1.38685 -12.60673,2.48701 -19.44111,2.7632 -6.83437,0.27619 -13.96915,-0.27162 -21.22065,-2.23747 -4.21809,-1.08547 -8.78919,-3.26775 -13.02078,-7.05013 -2e-5,-1e-5 -4e-5,-3e-5 -6e-5,-5e-5 -3.30893,-2.95678 -5.65759,-7.30943 -6.35127,-12.68786 -0.2415,-5.33993 1.20185,-9.99399 3.75768,-13.47343 2e-5,-3e-5 4e-5,-5e-5 5e-5,-7e-5 3.11855,-4.36514 6.91276,-7.52571 10.74153,-9.63776 11.58196,-6.48963 24.45072,-8.47711 36.31115,-8.2915 27.9708,-0.14303 57.2167,2.52038 86.23825,10.59905 21.47738,5.93964 43.04585,15.17496 62.05683,29.57396 14.85136,11.21597 27.82329,26.117 35.70286,44.32689 7.01662,16.57367 9.01803,35.17176 5.67033,53.08445 -3.83482,19.83965 -13.34715,37.97154 -25.76929,53.21548 -2.16498,2.66824 -4.40696,5.26402 -6.71917,7.78915 -14.58572,15.92883 -31.69726,28.77597 -49.44114,39.29645 -27.75592,16.51684 -57.33125,27.99864 -86.67181,36.46431 -39.96978,11.55765 -79.85163,17.76144 -118.16236,21.07767 -8.338673,0.97195 -18.042737,0.89378 -27.863754,-2.6508 -3.105197,-1.0397 -6.514923,-3.14729 -9.707151,-6.56014 -2.4e-5,-3e-5 -4.9e-5,-6e-5 -7.3e-5,-8e-5 -2.675419,-3.03722 -4.196434,-7.00218 -4.29797,-11.50507 0.269444,-4.6896 1.664544,-8.42987 3.651422,-11.0565 1.6e-5,-2e-5 3.1e-5,-5e-5 4.7e-5,-7e-5 2.504853,-3.56685 5.348611,-6.24012 8.139288,-8.19735 8.505863,-6.07546 17.725589,-9.42039 26.372752,-11.50622 3.314563,-0.84217 6.523346,-1.46973 9.595688,-2.01118 4.405795,-0.78272 8.762496,-1.43039 13.058723,-2.00317 12.115518,-1.61605 24.021288,-2.70342 35.665998,-3.50408 35.47506,-2.44357 68.99196,-2.23935 99.94003,-0.38914 22.71428,1.35234 44.10302,3.6318 63.91783,6.65907 19.81481,3.02727 38.05692,6.79922 54.57283,11.00456 18.74729,4.76415 35.30608,10.12958 49.41829,15.5514 14.11222,5.42182 25.79001,10.8868 35.02979,15.7497 9.23978,4.8629 16.05381,9.11067 20.50772,12.19656 4.45391,3.0859 6.55747,4.99933 6.27748,5.47167 -0.27999,0.47234 -2.9321,-0.51137 -7.85019,-2.65103 -4.91808,-2.13966 -12.11096,-5.42366 -21.60232,-9.30068 -9.49137,-3.87702 -21.29308,-8.33362 -35.40086,-12.75779 -14.10778,-4.42417 -30.5339,-8.80286 -49.06305,-12.66412 -16.3268,-3.39414 -34.29402,-6.37941 -53.77425,-8.66707 -19.48023,-2.28766 -40.47498,-3.87474 -62.77429,-4.60935 -30.39218,-0.9937 -63.188,-0.44592 -97.77363,2.59952 -11.35694,1.00144 -22.86068,2.25682 -34.43904,4.00285 -4.104775,0.61929 -8.185058,1.29271 -12.223796,2.07907 -2.868042,0.56233 -5.612296,1.13497 -8.189835,1.84286 -7.439669,2.14624 -14.432415,4.57671 -19.571386,8.64201 -1.600255,1.30608 -2.87947,2.39485 -3.432191,3.40903 -3e-6,0 -7e-6,1e-5 -10e-6,2e-5 -0.245361,0.71785 -0.501915,0.85681 -0.252501,0.20759 -0.119424,-0.89416 -0.181648,-1.30806 -0.48383,-1.60629 -1e-6,0 -2e-6,0 -4e-6,0 -0.157523,0.0895 0.633998,0.31256 1.875426,0.95028 4.730593,2.0711 11.346244,1.60574 18.808836,1.1136 37.325131,-3.6919 75.852821,-10.00407 114.050091,-21.33794 28.04454,-8.33976 55.91373,-19.23082 81.5323,-34.63615 16.34419,-9.86688 31.82355,-21.40747 44.54729,-35.34612 2.01703,-2.20963 3.9589,-4.47366 5.81895,-6.79414 10.52555,-13.19798 18.58598,-28.08384 21.40249,-43.57739 2.6033,-13.69972 1.12988,-28.16082 -4.1807,-40.70116 -5.7966,-14.09103 -16.46162,-26.21239 -28.82694,-35.88312 -16.03381,-12.49494 -35.2044,-20.74594 -54.81245,-26.49795 -26.53936,-7.7317 -53.95002,-10.48255 -80.62967,-10.76501 -10.13515,0.13436 -19.69355,1.04141 -26.62728,5.25122 -2.14262,1.33944 -3.89012,2.52436 -4.6215,3.77304 0,1e-5 0,1e-5 0,2e-5 -0.38026,0.80479 -0.78135,1.3047 -0.5866,1.07205 -0.27094,-0.28164 0.10732,0.0821 0.48199,0.65586 1e-5,0 1e-5,1e-5 2e-5,1e-5 0.83633,1.07427 2.86039,1.85496 5.33438,2.77289 4.6264,1.58657 9.74581,1.9789 15.11938,1.74924 5.37357,-0.22965 11.00128,-1.08127 16.66592,-2.03978 10.87561,-2.07818 21.44211,-4.47559 31.58307,-7.34084 10.14097,-2.86525 19.85646,-6.1983 29.06109,-10.0993 7.09143,-3.03001 13.87212,-6.32521 20.12807,-10.02193 6.25595,-3.69672 11.98729,-7.79488 17.0333,-12.39281 3.87203,-3.56188 7.3696,-7.37486 10.23406,-11.38571 2.86446,-4.01086 5.09597,-8.21962 6.49356,-12.57914 1.31378,-3.89074 1.96803,-7.97197 2.02972,-12.01052 0.0617,-4.03855 -0.46917,-8.03456 -1.52794,-11.79766 -1.21717,-4.46929 -3.17289,-8.68899 -5.57028,-12.62311 -2.3974,-3.93412 -5.23671,-7.58271 -8.27661,-10.92298 -4.08905,-4.465562 -8.58381,-8.343573 -13.23147,-11.756419 -4.64765,-3.412846 -9.44865,-6.360388 -14.21423,-8.944223 C 242.7545,70.785554 230.58277,66.590326 219.72253,63.732633 208.86229,60.87494 199.29745,59.361225 191.49645,58.368472 183.69546,57.375719 177.6433,56.90875 173.55684,56.495314 c -4.08647,-0.413436 -6.21753,-0.772578 -6.2344,-1.243396 z"
             id="path3177"
             style="fill:#000000;fill-opacity:1;fill-rule:nonzero;stroke:none" />
          <path
             d="m 245.41125,7.307127 c 5.52,0 10,136.333483 10,304.315803 0,167.98233 -4.48,304.31581 -10,304.31581 -5.52,0 -10,-136.33348 -10,-304.31581 0,-167.98232 4.48,-304.315803 10,-304.315803 z"
             id="path3179"
             style="fill:#000000;fill-opacity:1;fill-rule:nonzero;stroke:none" />
        </g>
      </g>
    </mask>
  </defs>
  <metadata
     id="metadata4">
Created by potrace 1.11, written by Peter Selinger 2001-2013
<rdf:RDF>
  <cc:Work
     rdf:about="">
    <dc:format>image/svg+xml</dc:format>
    <dc:type
       rdf:resource="http://purl.org/dc/dcmitype/StillImage" />
    <dc:title></dc:title>
  </cc:Work>
</rdf:RDF>
</metadata>
  <rect
     width="502.11865"
     height="502.11865"
     x="1.0593146"
     y="2.1186419"
     transform="translate(-1.038796,-4.1899014)"
     mask="url(#mask3169)"
     id="rect4230-2"
     style="fill:#000000;fill-opacity:1" />
</svg>
